<svg width="58" height="16" viewBox="0 0 58 16" fill="none" xmlns="http://www.w3.org/2000/svg">
<path d="M7.51206 11.408H3.22406C3.1494 11.6213 3.0694 11.856 2.98406 12.112C2.89873 12.3573 2.8134 12.6027 2.72806 12.848C2.6534 13.0827 2.57873 13.3067 2.50406 13.52C2.4294 13.7227 2.37073 13.8933 2.32806 14.032C2.17873 14.096 2.00273 14.128 1.80006 14.128C1.6294 14.128 1.47473 14.0853 1.33606 14C1.20806 13.904 1.14406 13.7547 1.14406 13.552C1.14406 13.456 1.16006 13.36 1.19206 13.264C1.22406 13.1573 1.2614 13.0453 1.30406 12.928C1.46406 12.48 1.66673 11.904 1.91206 11.2C2.16806 10.496 2.44006 9.74933 2.72806 8.96C3.02673 8.16 3.3254 7.36 3.62406 6.56C3.9334 5.74933 4.21606 5.024 4.47206 4.384C4.5574 4.34133 4.6854 4.29867 4.85606 4.256C5.02673 4.21333 5.20273 4.192 5.38406 4.192C5.5974 4.192 5.80006 4.224 5.99206 4.288C6.19473 4.352 6.32273 4.45867 6.37606 4.608C6.63206 5.22667 6.90406 5.936 7.19206 6.736C7.49073 7.52533 7.7894 8.336 8.08806 9.168C8.38673 10 8.6694 10.8213 8.93606 11.632C9.2134 12.432 9.45873 13.1573 9.67206 13.808C9.58673 13.904 9.4854 13.9787 9.36806 14.032C9.25073 14.096 9.1174 14.128 8.96806 14.128C8.7654 14.128 8.61073 14.0853 8.50406 14C8.3974 13.904 8.30673 13.7493 8.23206 13.536L7.51206 11.408ZM5.36806 5.28C5.25073 5.6 5.1174 5.968 4.96806 6.384C4.81873 6.78933 4.66406 7.216 4.50406 7.664C4.34406 8.112 4.18406 8.56533 4.02406 9.024C3.86406 9.48267 3.71473 9.92 3.57606 10.336H7.17606C7.01606 9.856 6.85073 9.376 6.68006 8.896C6.5094 8.40533 6.34406 7.936 6.18406 7.488C6.03473 7.04 5.89073 6.62933 5.75206 6.256C5.62406 5.872 5.5174 5.54667 5.43206 5.28H5.36806ZM16.4528 9.184C16.4528 8.58667 16.2821 8.14933 15.9408 7.872C15.6101 7.59467 15.1621 7.456 14.5968 7.456C14.1701 7.456 13.7915 7.50933 13.4608 7.616C13.1301 7.72267 12.8475 7.84533 12.6128 7.984V13.968C12.5595 13.9893 12.4795 14.0107 12.3728 14.032C12.2661 14.064 12.1488 14.08 12.0208 14.08C11.5621 14.08 11.3328 13.888 11.3328 13.504V8.048C11.3328 7.824 11.3755 7.64267 11.4608 7.504C11.5568 7.35467 11.7168 7.21067 11.9408 7.072C12.2181 6.90133 12.5861 6.74667 13.0448 6.608C13.5035 6.46933 14.0208 6.4 14.5968 6.4C15.5675 6.4 16.3301 6.61867 16.8848 7.056C17.4501 7.49333 17.7328 8.18133 17.7328 9.12V13.968C17.6795 13.9893 17.5941 14.0107 17.4768 14.032C17.3701 14.064 17.2581 14.08 17.1408 14.08C16.6821 14.08 16.4528 13.888 16.4528 13.504V9.184ZM21.4897 13.968C21.4364 13.9893 21.3564 14.0107 21.2497 14.032C21.143 14.064 21.0257 14.08 20.8977 14.08C20.439 14.08 20.2097 13.888 20.2097 13.504V6.64C20.263 6.61867 20.343 6.59733 20.4497 6.576C20.567 6.544 20.6897 6.528 20.8177 6.528C21.2657 6.528 21.4897 6.72533 21.4897 7.12V13.968ZM20.0177 4.272C20.0177 4.048 20.0924 3.86133 20.2417 3.712C20.4017 3.552 20.6044 3.472 20.8497 3.472C21.095 3.472 21.2924 3.552 21.4417 3.712C21.591 3.86133 21.6657 4.048 21.6657 4.272C21.6657 4.496 21.591 4.688 21.4417 4.848C21.2924 4.99733 21.095 5.072 20.8497 5.072C20.6044 5.072 20.4017 4.99733 20.2417 4.848C20.0924 4.688 20.0177 4.496 20.0177 4.272ZM33.3651 8.976C33.3651 8.45333 33.2157 8.06933 32.9171 7.824C32.6184 7.57867 32.2184 7.456 31.7171 7.456C31.0237 7.456 30.4051 7.70133 29.8611 8.192C29.9251 8.40533 29.9571 8.63467 29.9571 8.88V13.968C29.9037 13.9893 29.8184 14.0107 29.7011 14.032C29.5944 14.064 29.4824 14.08 29.3651 14.08C28.9064 14.08 28.6771 13.888 28.6771 13.504V8.976C28.6771 8.45333 28.5277 8.06933 28.2291 7.824C27.9304 7.57867 27.5251 7.456 27.0131 7.456C26.6717 7.456 26.3464 7.50933 26.0371 7.616C25.7384 7.72267 25.4824 7.84533 25.2691 7.984V13.968C25.2157 13.9893 25.1357 14.0107 25.0291 14.032C24.9224 14.064 24.8051 14.08 24.6771 14.08C24.2184 14.08 23.9891 13.888 23.9891 13.504V8.048C23.9891 7.83467 24.0317 7.65867 24.1171 7.52C24.2131 7.37067 24.3731 7.22133 24.5971 7.072C24.8851 6.89067 25.2477 6.736 25.6851 6.608C26.1331 6.46933 26.5811 6.4 27.0291 6.4C27.5517 6.4 28.0157 6.48 28.4211 6.64C28.8264 6.78933 29.1357 6.99733 29.3491 7.264C29.6264 7.01867 29.9731 6.816 30.3891 6.656C30.8051 6.48533 31.2797 6.4 31.8131 6.4C32.6771 6.4 33.3651 6.608 33.8771 7.024C34.3891 7.42933 34.6451 8.05867 34.6451 8.912V13.968C34.5917 13.9893 34.5064 14.0107 34.3891 14.032C34.2824 14.064 34.1704 14.08 34.0531 14.08C33.5944 14.08 33.3651 13.888 33.3651 13.504V8.976ZM39.6916 13.168C40.1396 13.168 40.5076 13.1253 40.7956 13.04C41.0942 12.944 41.3076 12.8533 41.4356 12.768V10.448L39.4516 10.656C38.8969 10.7093 38.4862 10.8373 38.2196 11.04C37.9529 11.232 37.8196 11.52 37.8196 11.904C37.8196 12.3093 37.9742 12.624 38.2836 12.848C38.5929 13.0613 39.0622 13.168 39.6916 13.168ZM39.6756 6.4C40.6036 6.4 41.3396 6.608 41.8836 7.024C42.4276 7.44 42.6996 8.096 42.6996 8.992V12.784C42.6996 13.0187 42.6516 13.2 42.5556 13.328C42.4702 13.4453 42.3369 13.5573 42.1556 13.664C41.8996 13.8133 41.5582 13.9413 41.1316 14.048C40.7156 14.1653 40.2356 14.224 39.6916 14.224C38.6889 14.224 37.9102 14.0267 37.3556 13.632C36.8116 13.2373 36.5396 12.6667 36.5396 11.92C36.5396 11.216 36.7689 10.688 37.2276 10.336C37.6862 9.97333 38.3316 9.74933 39.1636 9.664L41.4356 9.44V8.992C41.4356 8.45867 41.2756 8.06933 40.9556 7.824C40.6356 7.57867 40.2036 7.456 39.6596 7.456C39.2116 7.456 38.7902 7.52 38.3956 7.648C38.0009 7.776 37.6489 7.92 37.3396 8.08C37.2542 8.00533 37.1742 7.92 37.0996 7.824C37.0356 7.728 37.0036 7.62133 37.0036 7.504C37.0036 7.35467 37.0409 7.232 37.1156 7.136C37.1902 7.04 37.3076 6.94933 37.4676 6.864C37.7556 6.71467 38.0862 6.60267 38.4596 6.528C38.8329 6.44267 39.2382 6.4 39.6756 6.4ZM46.4439 13.968C46.3906 13.9893 46.3106 14.0107 46.2039 14.032C46.0973 14.064 45.9799 14.08 45.8519 14.08C45.3933 14.08 45.1639 13.888 45.1639 13.504V3.632C45.2173 3.61067 45.2973 3.58933 45.4039 3.568C45.5213 3.536 45.6386 3.52 45.7559 3.52C46.2146 3.52 46.4439 3.712 46.4439 4.096V13.968ZM54.1894 12.032C54.1894 12.7147 53.9388 13.248 53.4374 13.632C52.9361 14.016 52.2108 14.208 51.2614 14.208C50.8561 14.208 50.4828 14.1707 50.1414 14.096C49.8001 14.032 49.5068 13.9467 49.2614 13.84C49.0268 13.7227 48.8401 13.5947 48.7014 13.456C48.5734 13.3067 48.5094 13.1573 48.5094 13.008C48.5094 12.88 48.5414 12.7573 48.6054 12.64C48.6801 12.5227 48.7868 12.4213 48.9254 12.336C49.2134 12.5493 49.5494 12.7413 49.9334 12.912C50.3174 13.072 50.7548 13.152 51.2454 13.152C52.3548 13.152 52.9094 12.7787 52.9094 12.032C52.9094 11.424 52.5414 11.0293 51.8054 10.848L50.4774 10.496C49.8268 10.3253 49.3521 10.08 49.0534 9.76C48.7548 9.42933 48.6054 9.008 48.6054 8.496C48.6054 8.21867 48.6588 7.952 48.7654 7.696C48.8828 7.44 49.0588 7.216 49.2934 7.024C49.5281 6.832 49.8161 6.68267 50.1574 6.576C50.5094 6.45867 50.9201 6.4 51.3894 6.4C52.1361 6.4 52.7388 6.512 53.1974 6.736C53.6561 6.94933 53.8854 7.2 53.8854 7.488C53.8854 7.62667 53.8481 7.74933 53.7734 7.856C53.7094 7.96267 53.6188 8.04267 53.5014 8.096C53.3094 7.968 53.0374 7.82933 52.6854 7.68C52.3334 7.53067 51.9174 7.456 51.4374 7.456C50.9574 7.456 50.5734 7.54667 50.2854 7.728C50.0081 7.90933 49.8694 8.16533 49.8694 8.496C49.8694 8.74133 49.9494 8.94933 50.1094 9.12C50.2694 9.29067 50.5361 9.41867 50.9094 9.504L52.0134 9.776C52.7388 9.95733 53.2828 10.2293 53.6454 10.592C54.0081 10.944 54.1894 11.424 54.1894 12.032ZM55.3419 13.328C55.3419 13.072 55.4166 12.8587 55.5659 12.688C55.7259 12.5173 55.9446 12.432 56.2219 12.432C56.4993 12.432 56.7126 12.5173 56.8619 12.688C57.0113 12.8587 57.0859 13.072 57.0859 13.328C57.0859 13.5733 57.0113 13.7813 56.8619 13.952C56.7126 14.1227 56.4993 14.208 56.2219 14.208C55.9446 14.208 55.7259 14.1227 55.5659 13.952C55.4166 13.7813 55.3419 13.5733 55.3419 13.328Z" fill="#ED2E7C"/>
<path fill-rule="evenodd" clip-rule="evenodd" d="M21 0.525619C19.3357 -1.29917 15.1746 1.89401 21 6C26.8254 1.89441 22.6643 -1.29917 21 0.525619Z" fill="#6A1990"/>
</svg>
